<?xml version="1.0" encoding="utf-8" ?><svg xmlns="http://www.w3.org/2000/svg" xmlns:xlink="http://www.w3.org/1999/xlink" width="500" height="500" viewBox="0 0 500 500"><path fill="#227BF1" transform="scale(1.66667 1.66667)" d="M60.5048 22.0984C72.8357 21.6494 85.2915 22.0082 97.6383 22.0081L167.488 22.008L205.407 22.0034C213.27 22.0028 221.519 21.4548 229.289 22.702C237.256 23.9806 244.38 27.2016 250.503 32.4695C256.513 37.744 260.771 44.726 262.709 52.4837C264.931 61.3131 264.054 71.1924 264.051 80.2517L264.05 117.523C264.049 125.297 263.774 133.176 264.366 140.928C262.684 138.456 261.188 135.906 259.352 133.534C250.715 122.464 239.47 113.708 226.621 108.048C205.695 98.8706 181.959 98.4917 160.751 106.997C139.641 115.201 122.766 131.622 113.989 152.5C104.88 173.433 104.613 197.157 113.249 218.29C126.098 250.724 157.423 272.047 192.31 272.106C196.944 272.085 201.366 272.019 205.944 271.214C207.074 271.016 209.448 269.992 210.414 270.429C209.479 271.474 207.741 271.897 206.46 272.386C201.41 274.312 196.645 275.861 191.229 276.301C182.024 277.048 172.452 276.568 163.21 276.586L111.427 276.647L77.1481 276.664C70.1138 276.672 62.6393 277.179 55.69 276.048C48.4631 274.917 41.6888 271.812 36.1139 267.077C27.7375 259.877 22.5581 249.649 21.7115 238.637C21.3609 234.065 21.5068 229.428 21.5109 224.845L21.5213 203.522L21.5269 134.935L21.5196 84.9214C21.5171 75.8576 20.8272 65.1849 22.1779 56.3114C23.285 49.0378 26.6615 41.7524 31.4584 36.1822C38.8981 27.5431 49.2501 22.926 60.5048 22.0984Z"/><path fill="#94C6F4" transform="scale(1.66667 1.66667)" d="M67.9034 68.1C75.4258 67.819 83.0067 67.9987 90.5354 67.9985L130.271 68.0026L160.516 67.9937C165.926 67.9935 171.453 67.7479 176.848 68.1064C178.515 68.2172 179.984 68.2723 181.365 69.326C182.821 70.4362 183.691 72.1958 183.884 73.9988C184.075 75.7902 183.582 77.6646 182.401 79.0448C180.869 80.8334 178.714 81.2299 176.485 81.4301L101.764 81.4134L80.2549 81.4036C75.7772 81.4078 71.1994 81.5955 66.7388 81.2231C65.3728 81.1091 64.3302 80.8779 63.2084 80.0499C61.7021 78.9174 60.7146 77.2267 60.4682 75.3584C60.239 73.5133 61.0064 71.7548 62.1632 70.338C63.6532 68.5135 65.7046 68.2863 67.9034 68.1Z"/><path fill="#94C6F4" transform="scale(1.66667 1.66667)" d="M67.232 110.072C75.889 109.623 84.7266 109.958 93.4058 109.957C100.013 109.956 106.939 109.536 113.499 110.075C114.836 110.185 115.976 110.322 117.11 111.07C118.618 112.064 119.627 113.49 119.979 115.271C120.317 116.977 120.14 118.952 119.149 120.418C117.953 122.186 116.097 123.033 114.071 123.437C106.397 123.972 97.2233 123.531 89.4107 123.528C82.7042 123.526 74.1313 123.98 67.6496 123.429C66.3322 123.317 64.958 123.155 63.8362 122.401C62.3757 121.419 61.4436 119.834 61.1206 118.118C60.7702 116.256 61.196 114.193 62.3139 112.652C63.5557 110.941 65.2327 110.389 67.232 110.072Z"/><path fill="#94C6F4" transform="scale(1.66667 1.66667)" d="M69.3125 152.604C72.3079 152.364 75.4532 152.537 78.4635 152.525C82.1121 152.51 86.2291 152.137 89.8229 152.789C90.9661 152.997 92.0188 153.42 92.9629 154.103C94.3292 155.093 95.2154 156.549 95.435 158.224C95.665 160.087 95.1567 161.967 94.0188 163.46C92.4749 165.452 90.7521 165.926 88.3583 166.222L75.59 166.274C72.9825 166.282 70.0593 166.518 67.4915 166.037C66.1948 165.794 64.9117 165.297 63.884 164.456C62.4464 163.28 61.7972 161.814 61.6455 159.988C61.4739 157.922 61.8297 156.426 63.2083 154.845C64.8972 152.908 66.9124 152.767 69.3125 152.604Z"/><path fill="#121D28" transform="scale(1.66667 1.66667)" d="M188.187 117.858L188.444 117.826C191.36 117.492 194.565 117.744 197.487 117.999C210.912 119.171 223.542 124.004 234.064 132.475C248.399 143.957 257.556 160.688 259.501 178.952C261.239 195.318 256.693 214.153 246.282 227.086C247.026 227.657 247.716 228.336 248.394 228.984C256.923 237.126 265.127 245.645 273.547 253.904C277.644 257.923 285.878 265.126 288.887 269.384C289.8 270.675 290.037 272.263 290.055 273.817C290.089 276.776 289.25 279.012 287.167 281.12C285.328 283.006 282.798 284.058 280.165 284.032C278.722 284.023 276.878 283.786 275.607 283.061C271.368 280.639 267.558 275.896 264.105 272.424L250.435 258.703C244.518 252.914 238.774 246.929 232.961 241.033C222.544 248.913 210.534 254.005 197.416 254.886C179.416 256.095 161.552 251.112 147.846 239.079C133.81 226.755 125.102 209.836 123.88 191.137C122.527 172.75 128.625 154.591 140.803 140.748C153.155 126.763 169.653 119.032 188.187 117.858Z"/><path fill="#FEFEFE" transform="scale(1.66667 1.66667)" d="M189.842 139.038C215.942 137.945 237.99 158.207 239.101 184.305C240.211 210.404 219.964 232.466 193.866 233.594C167.744 234.723 145.656 214.453 144.544 188.329C143.433 162.206 163.718 140.132 189.842 139.038Z"/></svg>